# xmcd
#
# Track frame offsets:
# 150
# 41670
# 135830
#
# Disc length: 3325 seconds
#
# Revision: 0
# Processed by: cddbd v1.5PL3 Copyright (c) Steve Scherf et al.
# Submitted via: MacMP3 Pro 5.0 (http://mp3.act2.co.jp/)
#
DISCID=1c0cfb03
DTITLE=Codaime Kokontei Sinsyou - CD Kurabu Meijinkai No.29
DYEAR=1900
DGENRE=
TTITLE0=Akubi Sinan
TTITLE1=Tengu Sabaki
TTITLE2=Yasubee Gitune
EXTD=
EXTT0=
EXTT1=
EXTT2=
PLAYORDER=
